<svg width="24" height="24" viewBox="0 0 24 24" fill="none" xmlns="http://www.w3.org/2000/svg">
<path fill-rule="evenodd" clip-rule="evenodd" d="M17.7929 19.7071C18.1834 20.0976 18.8166 20.0976 19.2071 19.7071C19.5976 19.3166 19.5976 18.6834 19.2071 18.2929L13.1642 12.25L19.2071 6.20711C19.5976 5.81658 19.5976 5.18342 19.2071 4.79289C18.8166 4.40237 18.1834 4.40237 17.7929 4.79289L11.75 10.8358L5.70711 4.79289C5.31658 4.40237 4.68342 4.40237 4.29289 4.79289C3.90237 5.18342 3.90237 5.81658 4.29289 6.20711L10.3358 12.25L4.29289 18.2929C3.90237 18.6834 3.90237 19.3166 4.29289 19.7071C4.68342 20.0976 5.31658 20.0976 5.70711 19.7071L11.75 13.6642L17.7929 19.7071Z" fill="#080403"/>
</svg>
