<svg width="16" height="16" viewBox="0 0 16 16" fill="none" xmlns="http://www.w3.org/2000/svg">
<path d="M9.30119 0C10.1813 2.03658 6.14568 3.29429 5.77062 4.99082C5.42681 6.54982 8.16851 8.36137 8.17101 8.36137C7.75469 7.71626 7.44839 7.18492 7.03082 6.18101C6.32446 4.48323 11.3328 2.94673 9.30119 0ZM11.9816 2.82046C11.9816 2.82046 8.44105 3.048 8.26102 5.31087C8.18101 6.31853 9.19243 6.84862 9.22118 7.58124C9.24493 8.18009 8.62108 8.68142 8.62108 8.68142C8.62108 8.68142 9.75627 8.46513 10.1113 7.55123C10.5051 6.53732 9.3437 5.85221 9.46122 5.04082C9.57374 4.26445 11.9816 2.82046 11.9816 2.82046ZM6.42072 8.05132C6.42072 8.05132 3.18019 8.00506 3.18019 8.92146C3.18019 9.87912 7.42214 9.95038 10.4514 9.36153C10.4514 9.36153 11.2565 8.80769 11.4715 8.60141C9.48622 9.00647 4.96048 9.05148 4.96048 8.70142C4.96048 8.37887 6.42072 8.05132 6.42072 8.05132ZM12.6517 8.05132C12.3342 8.07632 11.9916 8.19884 11.6816 8.42138C12.4117 8.26385 13.0318 8.71643 13.0318 9.23151C13.0318 10.3917 11.3515 11.4819 11.3515 11.4819C11.3515 11.4819 13.952 11.1868 13.952 9.28152C13.952 8.41638 13.3506 7.99631 12.6517 8.05132ZM5.6406 9.83161C5.14301 9.83161 4.40039 10.2217 4.40039 10.5917C4.40039 11.3356 8.141 11.9082 10.9115 10.8218L9.9513 10.2317C8.07349 10.833 4.61543 10.6367 5.6406 9.83161ZM6.10067 11.5019C5.41931 11.5019 4.97049 11.9132 4.97049 12.222C4.97049 13.1772 9.0399 13.2734 10.6514 12.302L9.63125 11.6519C8.4273 12.1607 5.40556 12.2383 6.10067 11.5019ZM3.8303 12.362C2.72012 12.3395 2 12.8383 2 13.2522C2 15.4525 13.3619 15.3513 13.3619 13.1021C13.3619 12.7283 12.9305 12.5471 12.7718 12.462C13.7007 14.6124 3.47024 14.4411 3.47024 13.1722C3.47024 12.8834 4.22286 12.6071 4.92048 12.7421L4.33038 12.402C4.1566 12.3758 3.98908 12.3658 3.8303 12.362ZM14.5621 13.8423C12.8343 15.48 8.45606 16.0739 4.05034 15.0625C8.45481 16.8653 14.5408 15.8538 14.5621 13.8423Z" fill="black"/>
</svg>
